' Copyright (C) 2019 - present Juergen Zimmermann, Hochschule Karlsruhe
'
' This program is free software: you can redistribute it and/or modify
' it under the terms of the GNU General Public License as published by
' the Free Software Foundation, either version 3 of the License, or
' (at your option) any later version.
'
' This program is distributed in the hope that it will be useful,
' but WITHOUT ANY WARRANTY; without even the implied warranty of
' MERCHANTABILITY or FITNESS FOR A PARTICULAR PURPOSE.  See the
' GNU General Public License for more details.
'
' You should have received a copy of the GNU General Public License
' along with this program.  If not, see <https://www.gnu.org/licenses/>.

' Preview durch <Alt>d

@startuml Controller-Klasse

interface Promise<T>

package @nestjs/common {
  class "@Controller" as Controller
  hide Controller circle

  class "@Get" as Get
  hide Get circle

  class "@Req" as Req
  hide Req circle

  class "@Res" as Res
  hide Res circle

  class "@Param" as Param
  hide Param circle

  class "@Query" as Query
  hide Query circle

  class "@UseInterceptors" as UseInterceptors
  hide UseInterceptors circle
}

package express {
  class Request
  class Response

  Response .[hidden].> Controller
}

package cd {
  package entity #FFFFFF {
    class Cd <<entity>>

    Cd .[hidden].> Promise
    Cd .[hidden].> Request
  }

  package service {
    class CdReadService << control >>
  }

  package rest #DDDDDD {
    CdQuery -up-|> Cd

    class CdGetController << control >> << @Controller() >> << @UseInterceptors() >> {
      + @Get() async getId(@Param() id: number, @Req() req: Request, @Headers() version: string, @Res() res: Response): Promise<Response<CdModel | undefined>>
      + @Get() async get(@Query() query: CdQuery, @Req() req: Request,  @Res() res: Response): Promise<Response<CdsModel | undefined>>
    }

    CdGetController o--> "1" CdReadService : service

    CdGetController ..> Controller
    CdGetController ..> Request
    CdGetController ..> Response
    CdGetController ..> Promise
    CdGetController .up.> CdModel
    CdGetController .up.> CdQuery

    CdReadService .[hidden].> Request
    CdReadService .[hidden].> Promise
    Response .right[hidden].> Controller
  }
}

hide empty members


@enduml
