' Copyright (C) 2019 - present Juergen Zimmermann, Hochschule Karlsruhe
'
' This program is free software: you can redistribute it and/or modify
' it under the terms of the GNU General Public License as published by
' the Free Software Foundation, either version 3 of the License, or
' (at your option) any later version.
'
' This program is distributed in the hope that it will be useful,
' but WITHOUT ANY WARRANTY; without even the implied warranty of
' MERCHANTABILITY or FITNESS FOR A PARTICULAR PURPOSE.  See the
' GNU General Public License for more details.
'
' You should have received a copy of the GNU General Public License
' along with this program.  If not, see <https://www.gnu.org/licenses/>.

' Preview durch <Alt>d

@startuml Controller-Klasse

interface Promise<T>

package @nestjs/graphql {
  class "@Resolver" as Resolver
  hide Resolver circle

  class "@UseGuards" as UseGuards
  hide UseGuards circle

  class "@UseInterceptors" as UseInterceptors
  hide UseInterceptors circle

  class "@Mutation" as Mutation
  hide Mutation circle

  class "@Args" as Args
  hide Args circle
}

package security.auth {
  class "type Role = 'ADMIN' | 'MITARBEITER' | 'KUNDE'" as Role
  hide Role circle

  class "@Roles" as Roles
  hide Roles circle

  Roles .right.> Role
}

package cd #DDDDDD {
  package entity #FFFFFF {
    class Cd <<entity>>
  }

  package service #FFFFFF {
    class CdWriteService << control >>
  }

  class "type CdDTO = Omit<Cd, 'lieder' | 'aktualisiert' | 'erzeugt'" as CdDTO
  hide CdDTO circle

    interface IdInput {
        id: number
    }

  class CdMutationResolver << control >> << @Resolver() >> << @UseGuards() >> << @UseInterceptors() >> {
    + @Mutation() @Roles() async create(@Args() cdDTO: CdDTO): Promise<number>
    + @Mutation() @Roles() async update(@Args() cdDTO: CdDTO): Promise<number>
    + @Mutation() @Roles() async delete(@Args() id: IdInput): Promise<boolean>
  }

  CdMutationResolver o-down-> "1" CdWriteService : service

  CdMutationResolver ..> Cd
  CdMutationResolver ..> CdDTO
  CdMutationResolver ..> IdInput
  CdDTO .up.> Cd
  CdMutationResolver ..> Promise
  CdMutationResolver ..> Resolver

  CdMutationResolver .up.> Roles
  CdMutationResolver .up.> Role

  CdDTO .[hidden].> Promise
  CdDTO .[hidden].> Resolver
}

hide empty members



@enduml
